<svg width="77" height="60" viewBox="0 0 77 60" fill="none" xmlns="http://www.w3.org/2000/svg">
<path d="M0 0H77V57C77 58.6569 75.6569 60 74 60H3C1.34315 60 0 58.6569 0 57V0Z" fill="black"/>
<g clip-path="url(#clip0_2268_1083)">
<path d="M48.5536 36.1071C44.4109 35.9079 44.6715 31.7926 44.6715 31.7926V25.8765H44.6157L44.6715 25.8476V25.8712C45.6706 25.8178 46.6718 25.8178 47.6708 25.8712C49.6996 25.9551 49.8459 26.1595 49.8459 26.1595C52.8133 26.5947 53.2866 29.6065 53.2866 29.6065V30.9407C53.5525 35.8974 48.5829 36.1281 48.5536 36.0993V36.1071ZM42.3157 23.7349H34.7376C34.7376 23.7349 35.7374 17.5069 27.0664 17.5069C27.0957 17.5357 23.8331 17.5357 23.8331 17.5357C23.8331 17.5357 23.5965 14.0547 30.1535 14.0547H45.6739C45.6739 14.0547 51.5529 13.6248 52.7867 17.5357C52.8133 17.5645 49.346 17.5357 49.346 17.5357C49.346 17.5357 42.438 17.3391 42.3157 23.7349ZM23.655 19.6799H27.6248C27.6248 19.6799 32.4775 19.2447 32.3259 23.6772H29.8876C29.8876 23.6772 23.5672 24.0259 23.655 19.6799ZM33.3868 36.2539C33.3868 36.2539 35.0035 34.7467 34.7163 29.3024C34.7163 29.3286 21.4214 29.3024 21.4214 29.3024V31.2133C21.4214 31.2133 21.3603 34.6209 23.5486 36.2539C23.5486 36.2827 15.9626 36.2539 15.9626 36.2539C15.9626 36.2539 13.729 36.2539 12.817 35.7297C12.817 35.7297 10.5569 35.1504 10.5276 32.0599C10.4984 28.9695 10.5276 24.4584 10.5276 24.4584C10.5276 24.4584 10.6739 21.997 11.2907 21.3312C11.5859 20.9826 12.0246 20.0862 13.729 19.8791C13.729 19.8791 14.2608 19.6799 16.7868 19.6799H21.1555C21.1555 19.6799 21.129 23.0875 23.3625 24.4322C23.3891 24.4322 25.5083 25.7926 30.095 25.7926H42.2332V31.2972C42.2066 33.049 42.6961 34.7709 43.6425 36.2539H33.3868ZM29.0926 36.0809C29.0926 36.0809 23.9687 35.8791 23.9687 31.3863H32.2887C32.2887 31.3863 32.6981 36.1386 29.0819 36.0809H29.0926ZM68.8549 32.4872C68.8549 32.4872 66.4618 32.4557 66.5044 32.4872C66.5309 36.6812 61.4762 36.2094 61.4762 36.2094H54.1215C56.5146 33.7323 55.6238 29.0796 55.6238 29.0403C55.4031 25.4335 50.5053 24.2565 50.5053 24.3011C48.0404 23.7349 44.6875 23.6903 44.6875 23.6903C44.7752 19.4361 49.5374 19.6982 49.5374 19.6982C49.5374 19.6982 57.0756 19.6117 61.9735 19.6982C66.8713 19.7847 66.5575 23.4361 66.5575 23.4361C66.5575 23.4361 68.8921 23.4806 68.8921 23.4361C68.9373 17.5278 61.9256 17.5698 61.9256 17.5698C61.9256 17.5698 55.3127 17.6117 55.3127 17.5698C54.3874 11.9603 46.9795 12.0049 46.9795 12.0049H28.7283C22.1075 12.0966 21.2459 17.5357 21.2459 17.5357H15.6621C7.74899 17.478 8.10795 23.997 8.10795 23.997C8.10795 23.997 8.13454 25.1242 8.10795 32.0232C8.08136 38.9223 16.1141 38.3981 16.1141 38.3981H61.1651C69.8041 38.3981 68.8762 32.4872 68.8762 32.4872" fill="white"/>
<path d="M43.2275 46.2279C43.2488 46.0444 43.2727 45.8583 43.2887 45.6749C43.3312 45.2397 43.3711 44.802 43.411 44.3642C43.4349 44.1021 43.4535 43.84 43.4774 43.591L43.5971 42.2961C43.621 42.0523 43.637 41.8085 43.6689 41.5648C43.6746 41.5425 43.6859 41.522 43.7017 41.505C43.7175 41.4881 43.7373 41.4753 43.7593 41.4678C44.2911 41.4678 44.8229 41.4678 45.3839 41.4678C45.3839 41.5621 45.3653 41.6434 45.352 41.7299C45.2669 42.2541 45.1819 42.802 45.0861 43.3393C44.9851 43.9632 44.8849 44.5879 44.7857 45.2135C44.6873 45.819 44.5916 46.4219 44.4932 47.0274C44.4453 47.3184 44.4001 47.6093 44.3469 47.8977C44.3379 47.9219 44.323 47.9437 44.3035 47.961C44.2841 47.9784 44.2607 47.9908 44.2353 47.9973C43.5413 47.9973 42.8473 47.9973 42.124 47.9973C41.9778 46.5136 41.8315 45.0379 41.6853 43.5595H41.6348C41.6129 43.629 41.596 43.7 41.5843 43.7718C41.547 44.1257 41.5178 44.4769 41.4832 44.8203C41.4354 45.3061 41.3857 45.7919 41.3343 46.2777C41.2997 46.6185 41.2705 46.9619 41.2359 47.3026C41.2147 47.5018 41.1987 47.7011 41.1695 47.8977C41.1614 47.9196 41.1479 47.9392 41.1303 47.9547C41.1127 47.9703 41.0914 47.9813 41.0684 47.9868C40.3984 47.9868 39.7283 47.9868 39.0582 47.9868C39.0349 47.9813 39.0133 47.9699 38.9956 47.9539C38.9779 47.9378 38.9647 47.9176 38.9572 47.895C38.8774 47.4599 38.8083 47.0222 38.7365 46.5844L38.4706 44.9619C38.3722 44.3406 38.2712 43.722 38.1728 43.1008C38.0957 42.6185 38.0159 42.1388 37.9388 41.6565C37.9388 41.5988 37.9388 41.5385 37.9229 41.473C37.9663 41.4708 38.0097 41.4708 38.0531 41.473C38.5371 41.473 39.0183 41.473 39.5023 41.473C39.6086 41.473 39.6406 41.5018 39.6485 41.6067C39.7017 42.2437 39.7682 42.878 39.8267 43.5123C39.8639 43.916 39.8905 44.3197 39.9251 44.7207C39.9676 45.2188 40.0119 45.715 40.058 46.2096C40.058 46.2096 40.058 46.2253 40.0926 46.2594C40.1106 46.2181 40.124 46.1751 40.1325 46.1309C40.2175 45.362 40.3 44.594 40.3797 43.8269C40.4356 43.2869 40.4888 42.7443 40.5419 42.2043C40.5632 41.992 40.5792 41.7771 40.6111 41.5648C40.6191 41.5426 40.6329 41.523 40.6511 41.5078C40.6694 41.4926 40.6913 41.4824 40.7148 41.4783C41.329 41.4783 41.9406 41.4783 42.5521 41.4783C42.6452 41.4783 42.6691 41.5202 42.6771 41.591C42.7063 41.84 42.7329 42.0864 42.7595 42.3354C42.8074 42.7889 42.8579 43.245 42.9058 43.7011C42.943 44.034 42.9722 44.3669 43.0068 44.6971C43.0618 45.2214 43.1167 45.736 43.1717 46.241L43.2275 46.2279Z" fill="white"/>
<path d="M20.4004 47.9918V47.8241C20.4004 45.7638 20.4004 43.7009 20.4004 41.638C20.4004 41.5017 20.435 41.4597 20.5812 41.4597C21.1981 41.4597 21.8185 41.4597 22.4425 41.4597C22.5675 41.4597 22.6073 41.5017 22.6339 41.6144C22.9636 43.0299 23.296 44.4436 23.631 45.8555C23.647 45.8952 23.6656 45.9337 23.6869 45.9709C23.7401 45.7559 23.7879 45.5751 23.8305 45.3968C24.123 44.1465 24.4181 42.8988 24.7079 41.6485C24.7398 41.5122 24.785 41.4545 24.9472 41.4571C25.5455 41.4571 26.1411 41.4571 26.7367 41.4571H26.9175V47.9814H25.2637V43.9263H25.2052C24.9215 45.2806 24.637 46.6384 24.3516 47.9997C23.9262 47.9997 23.5061 47.9997 23.0886 47.9997C23.0487 47.9997 22.9849 47.9263 22.9743 47.8765C22.7908 47.0194 22.6127 46.1596 22.4425 45.2998C22.3574 44.8883 22.275 44.4794 22.1766 44.0679C22.1648 44.017 22.1357 43.9717 22.0942 43.9394V44.1098C22.0942 45.347 22.0942 46.5842 22.0942 47.8215C22.0942 47.9761 22.0463 48.0128 21.8921 48.0102C21.4028 47.9866 20.9162 47.9918 20.4004 47.9918Z" fill="white"/>
<path d="M64.1033 41.4551H64.4117C65.2227 41.4551 66.0337 41.4551 66.842 41.4551C67.0727 41.4652 67.2988 41.5214 67.5068 41.6202C67.6554 41.6982 67.7775 41.8176 67.8579 41.9635C67.9382 42.1093 67.9733 42.2753 67.9588 42.4407C67.9588 43.9522 67.9588 45.4638 67.9588 46.9754C67.9632 47.1106 67.9388 47.2453 67.8872 47.3707C67.8356 47.4961 67.758 47.6094 67.6594 47.7035C67.5607 47.7976 67.4432 47.8702 67.3143 47.9168C67.1854 47.9634 67.0481 47.9829 66.9111 47.9741H64.2362H64.1033V41.4551ZM65.7545 42.1812V47.0671C65.7505 47.1072 65.7505 47.1476 65.7545 47.1877C65.7576 47.2009 65.7634 47.2133 65.7717 47.2242C65.7799 47.235 65.7904 47.244 65.8024 47.2506C65.853 47.2742 65.9089 47.2847 65.9648 47.2811C66.0207 47.2775 66.0748 47.26 66.1219 47.2301C66.169 47.2001 66.2075 47.1589 66.234 47.1102C66.2604 47.0615 66.2739 47.007 66.273 46.9518C66.273 45.4612 66.273 43.9706 66.273 42.48C66.273 42.2834 66.1666 42.189 65.9646 42.1812H65.7545Z" fill="white"/>
<path d="M56.4081 45.4596C56.674 46.3036 56.9399 47.1424 57.2244 47.9917C56.6687 47.9917 56.1369 47.9917 55.6025 47.9917C55.4908 47.9917 55.4775 47.9262 55.4589 47.8528C55.2914 47.1372 55.1265 46.4242 54.959 45.7086C54.9537 45.6793 54.9438 45.651 54.9297 45.6247C54.909 45.6051 54.8814 45.5938 54.8526 45.5933C54.8393 45.5933 54.8181 45.6274 54.8154 45.6457C54.8114 45.6858 54.8114 45.7262 54.8154 45.7663V47.9786C54.7542 47.9786 54.709 47.9786 54.6638 47.9786C54.2092 47.9786 53.7518 47.9786 53.2945 47.9786C53.1668 47.9786 53.127 47.9419 53.127 47.8187C53.127 47.1319 53.127 46.4478 53.127 45.761V41.6641C53.127 41.4648 53.127 41.4648 53.3264 41.4648C54.1772 41.4648 55.0281 41.4648 55.879 41.4648C56.0603 41.467 56.2401 41.4989 56.4108 41.5592C56.5757 41.606 56.7209 41.7039 56.8248 41.8385C56.9287 41.9731 56.9859 42.1371 56.9878 42.3063C57.017 43.0245 57.0144 43.7453 57.0223 44.4662C57.0304 44.5604 57.0304 44.6551 57.0223 44.7493C57.0103 44.9168 56.9442 45.0762 56.8337 45.204C56.7232 45.3318 56.574 45.4214 56.4081 45.4596ZM54.8127 44.841C55.193 44.9039 55.3259 44.7991 55.3259 44.4426V42.5841C55.3259 42.246 55.169 42.1333 54.8127 42.2145V44.841Z" fill="white"/>
<path d="M51.0902 44.7341C51.0902 45.4916 51.0902 46.2466 51.0902 47.0015C51.0969 47.1351 51.0748 47.2687 51.0253 47.3933C50.9758 47.518 50.9001 47.6308 50.8031 47.7245C50.7061 47.8181 50.59 47.8904 50.4626 47.9366C50.3351 47.9827 50.1992 48.0017 50.0638 47.9923C49.4895 47.9923 48.9125 47.9923 48.3381 47.9923C47.559 47.9923 47.2346 47.5755 47.2293 46.9438C47.2107 45.4628 47.2081 43.9792 47.2293 42.4877C47.2293 41.7905 47.6042 41.4864 48.3115 41.4523C48.8832 41.4261 49.4549 41.4313 50.0239 41.4523C50.6674 41.4759 51.1008 41.7905 51.0875 42.5008C51.0902 43.2531 51.0902 43.9949 51.0902 44.7341ZM48.9098 44.7341V47.0015C48.9098 47.2033 48.9816 47.2767 49.1757 47.2636C49.3698 47.2505 49.4416 47.1797 49.4416 46.9857V42.4851C49.4416 42.2859 49.3539 42.1941 49.1757 42.1941C48.9975 42.1941 48.9231 42.2728 48.9231 42.4772L48.9098 44.7341Z" fill="white"/>
<path d="M15.0638 41.4551H15.2154C15.9892 41.4551 16.7629 41.4551 17.5367 41.4551C17.667 41.4551 17.7095 41.5049 17.7255 41.6124C17.7787 42.0265 17.8318 42.4433 17.8877 42.8574C17.9515 43.3607 18.0206 43.864 18.0871 44.3699C18.1456 44.8024 18.2014 45.2375 18.2599 45.6805C18.3184 46.1235 18.3743 46.5403 18.4328 46.9701C18.478 47.303 18.5205 47.6386 18.5657 47.9846C18.5223 47.9868 18.4788 47.9868 18.4354 47.9846C17.9781 47.9846 17.5207 47.9846 17.0634 47.9846C16.9517 47.9846 16.9172 47.9531 16.9092 47.843C16.8773 47.3555 16.8294 46.8679 16.7895 46.3804C16.7895 46.3017 16.7523 46.2624 16.6645 46.265C16.4465 46.265 16.2285 46.265 15.9918 46.265L15.835 47.9741H14.197C14.4877 45.8089 14.7767 43.6359 15.0638 41.4551ZM16.6911 45.5311C16.6911 45.421 16.6911 45.324 16.6911 45.2323C16.6433 44.6923 16.5874 44.1523 16.5422 43.6124C16.505 43.2008 16.4784 42.7893 16.4412 42.3778C16.4412 42.3384 16.404 42.3017 16.3827 42.2624H16.3348L16.0503 45.5206L16.6911 45.5311Z" fill="white"/>
<path d="M10.6738 43.5356C10.6738 43.1765 10.6738 42.8226 10.6738 42.4687C10.6752 42.4343 10.6697 42.4 10.6576 42.3676C10.6455 42.3353 10.6271 42.3056 10.6034 42.2803C10.5797 42.255 10.5512 42.2346 10.5194 42.2201C10.4877 42.2057 10.4534 42.1975 10.4185 42.1961C10.3836 42.1948 10.3487 42.2002 10.3159 42.2121C10.2831 42.224 10.253 42.2421 10.2274 42.2655C10.2017 42.2889 10.1809 42.317 10.1663 42.3483C10.1516 42.3795 10.1434 42.4134 10.142 42.4478V46.9825C10.142 47.1975 10.2111 47.2708 10.4079 47.2682C10.6046 47.2656 10.6738 47.1843 10.6738 46.9746V45.5592C10.6624 45.5491 10.6499 45.5403 10.6365 45.533C10.4238 45.512 10.4238 45.512 10.4238 45.2971C10.4238 45.145 10.4238 44.9956 10.4238 44.8462C10.4283 44.8336 10.4336 44.8214 10.4398 44.8095H12.3463C12.3463 44.8619 12.3463 44.9144 12.3463 44.9668C12.3463 45.567 12.3463 46.1673 12.3463 46.7702C12.3467 46.9297 12.3298 47.0887 12.2957 47.2446C12.2508 47.4596 12.1305 47.652 11.9559 47.7881C11.7813 47.9243 11.5637 47.9954 11.3412 47.9891C10.7136 47.9891 10.0835 48.0074 9.45595 47.9891C9.33333 47.9954 9.21065 47.9776 9.09507 47.9368C8.97949 47.8959 8.87331 47.8327 8.78273 47.751C8.69215 47.6693 8.61898 47.5706 8.56748 47.4607C8.51598 47.3508 8.48718 47.2319 8.48277 47.111C8.46947 46.9275 8.45618 46.7414 8.45618 46.5579C8.45618 45.2656 8.45618 43.976 8.45618 42.6837C8.45419 42.499 8.47653 42.3149 8.52265 42.1359C8.56497 41.9608 8.66434 41.8042 8.80552 41.6901C8.94671 41.576 9.12195 41.5107 9.30439 41.5041C9.85746 41.4648 10.4132 41.4674 10.9662 41.4701C11.2081 41.4702 11.449 41.4983 11.6842 41.5539C11.8613 41.5957 12.0193 41.6944 12.1334 41.8344C12.2474 41.9743 12.3111 42.1477 12.3143 42.3272C12.3463 42.6889 12.3356 43.0559 12.3463 43.4203C12.3463 43.5146 12.3197 43.5513 12.2133 43.5513C11.732 43.5513 11.2508 43.5513 10.7668 43.5513C10.7356 43.5475 10.7045 43.5423 10.6738 43.5356Z" fill="white"/>
<path d="M32.4321 47.9921H29.135C29.0074 47.9921 28.9648 47.9633 28.9648 47.8349C28.9648 45.7641 28.9648 43.6907 28.9648 41.6199C28.9648 41.5282 28.9648 41.4574 29.0978 41.46H32.2567C32.2859 41.46 32.3178 41.46 32.3657 41.46V42.0891C32.3657 42.1966 32.2832 42.1756 32.2221 42.1756H30.6692V44.1756C30.7171 44.1756 30.7729 44.1756 30.8261 44.1756C31.2888 44.1756 31.7488 44.1756 32.2115 44.1756C32.3311 44.1756 32.379 44.2018 32.371 44.325C32.371 44.5085 32.371 44.6946 32.371 44.9017H30.6666V47.2477H30.8554C31.3287 47.2477 31.7993 47.2477 32.2726 47.2477C32.4029 47.2477 32.4428 47.287 32.4375 47.4102C32.4242 47.6121 32.4321 47.7903 32.4321 47.9921Z" fill="white"/>
<path d="M59.0884 41.4707H60.7343V47.261C60.8061 47.261 60.8619 47.261 60.9178 47.261C61.3113 47.261 61.7154 47.261 62.0983 47.261C62.2313 47.261 62.2712 47.3003 62.2632 47.4235C62.2552 47.5467 62.2632 47.7223 62.2632 47.8744C62.2632 47.9451 62.2472 47.9871 62.1595 47.9871H59.0884V41.4707Z" fill="white"/>
</g>
<defs>
<clipPath id="clip0_2268_1083">
<rect width="60.7895" height="36" fill="white" transform="translate(8.10522 12)"/>
</clipPath>
</defs>
</svg>
